<?xml version="1.0" encoding="utf-8"?>
<!-- Generator: Adobe Illustrator 21.0.0, SVG Export Plug-In . SVG Version: 6.00 Build 0)  -->
<svg version="1.1" id="Слой_1" xmlns="http://www.w3.org/2000/svg" xmlns:xlink="http://www.w3.org/1999/xlink" x="0px" y="0px"
	 viewBox="0 0 18 18" style="enable-background:new 0 0 18 18;" xml:space="preserve">
<style type="text/css">
	.st0{fill:#22262E;}
</style>
<title>iconmonstr-linkedin-3</title>
<desc>Created with Sketch.</desc>
<path class="st0" d="M14.2,0H3.8C1.7,0,0,1.7,0,3.8v10.5C0,16.3,1.7,18,3.8,18h10.5c2.1,0,3.8-1.7,3.8-3.8V3.8C18,1.7,16.3,0,14.2,0
	z M6,14.2H3.8V6H6V14.2z M4.9,5C4.2,5,3.6,4.5,3.6,3.7c0-0.7,0.6-1.3,1.3-1.3S6.2,3,6.2,3.7C6.2,4.5,5.6,5,4.9,5z M15,14.2h-2.2V10
	c0-2.5-3-2.3-3,0v4.2H7.5V6h2.2v1.3c1-1.9,5.2-2.1,5.2,1.9V14.2z"/>
</svg>
