<?xml version="1.0" encoding="utf-8"?>
<!-- Generator: Adobe Illustrator 21.0.0, SVG Export Plug-In . SVG Version: 6.00 Build 0)  -->
<svg version="1.1" id="Слой_1" xmlns="http://www.w3.org/2000/svg" xmlns:xlink="http://www.w3.org/1999/xlink" x="0px" y="0px"
	 viewBox="0 0 40.2 24.2" style="enable-background:new 0 0 40.2 24.2;" xml:space="preserve">
<style type="text/css">
	.st0{fill:#6B50FF;}
</style>
<title>People</title>
<desc>Created with Sketch.</desc>
<g>
	<path class="st0" d="M39.3,19c-1.5-1.4-3.2-2.4-4.1-2.9v-2.2c0.4-0.5,0.6-1.1,0.6-1.7V8.9c0-2.2-1.6-3.9-3.6-3.9h-0.7
		c-2,0-3.6,1.8-3.6,3.9v3.3c0,0.6,0.2,1.2,0.6,1.7V15c0,0.5,0.4,1,0.9,1c0.5,0,0.9-0.4,0.9-1v-1.5c0-0.3-0.2-0.6-0.4-0.8
		c-0.1-0.1-0.2-0.3-0.2-0.4V8.9c0-1.1,0.8-2,1.8-2h0.7c1,0,1.8,0.9,1.8,2v3.3c0,0.2-0.1,0.3-0.2,0.4c-0.2,0.2-0.4,0.5-0.4,0.8v3.2
		c0,0.4,0.2,0.8,0.6,1c0.4,0.2,2.3,1.3,4.1,2.9c0.1,0.1,0.2,0.3,0.2,0.5v1.3h-5.5c-0.5,0-0.9,0.4-0.9,1s0.4,1,0.9,1h6.4
		c0.5,0,0.9-0.4,0.9-1V21C40.2,20.2,39.9,19.5,39.3,19z"/>
	<path class="st0" d="M10.2,12.6c-0.2,0.2-0.4,0.5-0.4,0.8V15c0,0.5,0.4,1,0.9,1c0.5,0,0.9-0.4,0.9-1v-1.2c0.4-0.5,0.6-1.1,0.6-1.7
		V8.9c0-2.2-1.6-3.9-3.6-3.9H7.9c-2,0-3.6,1.8-3.6,3.9v3.3c0,0.6,0.2,1.2,0.6,1.7v2.2C4,16.6,2.4,17.6,0.9,19C0.3,19.5,0,20.2,0,21
		v2.2c0,0.5,0.4,1,0.9,1h6.5c0.5,0,0.9-0.4,0.9-1s-0.4-1-0.9-1H1.8V21c0-0.2,0.1-0.4,0.2-0.5c2-1.8,4.1-2.9,4.1-2.9
		c0.4-0.2,0.6-0.6,0.6-1v-3.2c0-0.3-0.2-0.6-0.4-0.8c-0.1-0.1-0.2-0.3-0.2-0.4V8.9c0-1.1,0.8-2,1.8-2h0.7c1,0,1.8,0.9,1.8,2v3.3
		C10.4,12.4,10.3,12.6,10.2,12.6z"/>
	<path class="st0" d="M24.7,14.2v-3.2c0.5-0.5,0.8-1.3,0.8-2V4.8c0-2.6-2-4.8-4.5-4.8h-0.9c-2.5,0-4.5,2.1-4.5,4.8V9
		c0,0.8,0.3,1.5,0.8,2v3.2c-1,0.5-3.3,1.9-5.4,3.8c-0.7,0.6-1,1.4-1,2.3v2.9c0,0.5,0.4,1,0.9,1h19.4c0.5,0,0.9-0.4,0.9-1v-2.9
		c0-0.9-0.4-1.8-1-2.3C28,16.1,25.7,14.7,24.7,14.2z M18.3,14.7v-4.1c0-0.3-0.2-0.6-0.4-0.8c-0.3-0.2-0.4-0.5-0.4-0.8V4.8
		c0-1.6,1.2-2.9,2.7-2.9H21c1.5,0,2.7,1.3,2.7,2.9V9c0,0.3-0.1,0.6-0.4,0.8c-0.3,0.2-0.4,0.5-0.4,0.8v4.1c0,0.4,0.2,0.8,0.6,1
		c0.7,0.4,3.2,1.8,5.5,3.8c0.2,0.2,0.4,0.5,0.4,0.8v1.9H11.8v-1.9c0-0.3,0.1-0.6,0.4-0.8c2.4-2.1,5-3.5,5.5-3.8
		C18.1,15.5,18.3,15.1,18.3,14.7z"/>
</g>
</svg>
