<?xml version="1.0" encoding="utf-8"?>
<!-- Generator: Adobe Illustrator 21.0.0, SVG Export Plug-In . SVG Version: 6.00 Build 0)  -->
<svg version="1.1" id="Слой_1" xmlns="http://www.w3.org/2000/svg" xmlns:xlink="http://www.w3.org/1999/xlink" x="0px" y="0px"
	 viewBox="0 0 25 25" style="enable-background:new 0 0 25 25;" xml:space="preserve">
<style type="text/css">
	.st0{fill:#4A6BFB;}
</style>
<title>Support Icon</title>
<desc>Created with Sketch.</desc>
<path class="st0" d="M12.5,0C5.6,0,0,5.6,0,12.5S5.6,25,12.5,25S25,19.4,25,12.5S19.4,0,12.5,0z M12.5,2c2.5,0,4.9,0.9,6.7,2.4
	L15.6,8c-0.9-0.6-2-1-3.1-1c-1.2,0-2.2,0.4-3.1,1L5.8,4.4C7.6,2.9,10,2,12.5,2z M16,12.5c0,1.9-1.6,3.5-3.5,3.5S9,14.4,9,12.5
	S10.6,9,12.5,9S16,10.6,16,12.5z M2,12.5C2,10,2.9,7.6,4.4,5.8L8,9.4c-0.6,0.9-1,2-1,3.1c0,1.2,0.4,2.2,1,3.1l-3.6,3.6
	C2.9,17.4,2,15,2,12.5z M12.5,23c-2.5,0-4.9-0.9-6.7-2.4L9.4,17c0.9,0.6,2,1,3.1,1c1.2,0,2.2-0.4,3.1-1l3.6,3.6
	C17.4,22.1,15,23,12.5,23z M20.6,19.2L17,15.6c0.6-0.9,1-2,1-3.1c0-1.2-0.4-2.2-1-3.1l3.6-3.6C22.1,7.6,23,10,23,12.5
	C23,15,22.1,17.4,20.6,19.2z"/>
</svg>
