<?xml version="1.0" encoding="UTF-8"?>
<svg width="88px" height="16px" viewBox="0 0 88 16" version="1.1" xmlns="http://www.w3.org/2000/svg" xmlns:xlink="http://www.w3.org/1999/xlink">
    <!-- Generator: Sketch 46.2 (44496) - http://www.bohemiancoding.com/sketch -->
    <title>Logo</title>
    <desc>Created with Sketch.</desc>
    <defs></defs>
    <g id="Statecraft-v1" stroke="none" stroke-width="1" fill="none" fill-rule="evenodd">
        <g id="About-—-Desktop" transform="translate(-767.000000, -2252.000000)" fill="#FFFFFF">
            <g id="Project-Highlights" transform="translate(200.000000, 2116.000000)">
                <g id="PDF" transform="translate(535.000000, 104.000000)">
                    <g id="Bitmap">
                        <g id="Group" transform="translate(32.000000, 22.000000)">
                            <g id="Logo" transform="translate(0.000000, 10.000000)">
                                <path d="M21.3919478,6.59027315 C21.3114251,6.71818851 21.2268775,6.8141236 21.1383025,6.87808128 C21.0497275,6.94203896 20.9356554,6.97401732 20.7960827,6.97401732 C20.6726145,6.97401732 20.5397541,6.9353768 20.3974973,6.8580946 C20.2552405,6.78081241 20.0941975,6.69420434 19.9143634,6.59826782 C19.7345294,6.5023313 19.5291996,6.41572324 19.2983678,6.33844104 C19.067536,6.26115884 18.8044991,6.22251832 18.5092492,6.22251832 C17.999272,6.22251832 17.6194789,6.33044529 17.3698585,6.54630247 C17.1202381,6.76215964 16.9954298,7.05396219 16.9954298,7.42171885 C16.9954298,7.65623035 17.0705832,7.85076538 17.2208923,8.00532978 C17.3712013,8.15989418 17.568479,8.29313735 17.8127312,8.40506329 C18.0569834,8.51698923 18.3361247,8.61958648 18.6501632,8.71285809 C18.9642018,8.80612971 19.2849458,8.91005939 19.6124048,9.02465023 C19.9398638,9.13924108 20.2606078,9.27381668 20.5746464,9.42838108 C20.8886849,9.58294548 21.1678261,9.78014537 21.4120783,10.0199867 C21.6563306,10.259828 21.8536082,10.5516305 22.0039173,10.8954031 C22.1542264,11.2391756 22.2293798,11.6535619 22.2293798,12.1385743 C22.2293798,12.6768848 22.135438,13.180544 21.9475517,13.649567 C21.7596654,14.11859 21.4872343,14.5276465 21.1302503,14.8767488 C20.7732663,15.2258512 20.3330821,15.5003321 19.8096844,15.7001999 C19.2862868,15.9000676 18.6917697,16 18.0261153,16 C17.6610791,16 17.2893381,15.9626919 16.9108814,15.8880746 C16.5324247,15.8134573 16.1660518,15.7081952 15.8117519,15.5722851 C15.457452,15.4363751 15.1246298,15.2751508 14.8132753,15.0886076 C14.5019208,14.9020644 14.2308318,14.694205 14,14.4650233 L14.8052231,13.2018654 C14.8642731,13.1059289 14.9474786,13.0286479 15.0548422,12.97002 C15.1622058,12.9113921 15.27762,12.8820786 15.4010881,12.8820786 C15.5621336,12.8820786 15.7245186,12.932711 15.8882481,13.0339773 C16.0519776,13.1352437 16.2371771,13.2471679 16.443852,13.3697535 C16.650527,13.4923391 16.8880654,13.6042633 17.1564744,13.7055296 C17.4248835,13.806796 17.7416014,13.8574284 18.1066376,13.8574284 C18.6005103,13.8574284 18.9843294,13.7495014 19.2581066,13.5336442 C19.5318838,13.3177871 19.6687704,12.9753521 19.6687704,12.5063291 C19.6687704,12.234509 19.593617,12.0133253 19.4433079,11.8427715 C19.2929989,11.6722177 19.0957212,11.5309799 18.851469,11.419054 C18.6072168,11.307128 18.3294176,11.2085281 18.0180631,11.1232512 C17.7067086,11.0379743 17.3873067,10.9433716 17.0598477,10.8394404 C16.7323886,10.7355091 16.4129867,10.6075957 16.1016322,10.4556962 C15.7902777,10.3037967 15.5124786,10.103932 15.2682263,9.85609594 C15.0239741,9.60825992 14.8266964,9.29913576 14.6763874,8.92871419 C14.5260783,8.55829262 14.4509249,8.10126854 14.4509249,7.55762825 C14.4509249,7.12058409 14.5394986,6.69420594 14.7166485,6.27848101 C14.8937985,5.86275608 15.1541513,5.49234007 15.4977149,5.16722185 C15.8412785,4.84210364 16.2626743,4.58227945 16.7619151,4.38774151 C17.2611559,4.19320356 17.8328586,4.09593604 18.4770403,4.09593604 C18.8367084,4.09593604 19.1869769,4.12391711 19.5278564,4.17988008 C19.8687358,4.23584305 20.1921639,4.31845382 20.4981502,4.42771486 C20.8041365,4.5369759 21.0899878,4.6675542 21.3557127,4.8194537 C21.6214377,4.97135319 21.8589761,5.14323688 22.0683351,5.33510993 L21.3919478,6.59027315 Z M26.5131665,16 C26.1159211,16 25.7656526,15.9427054 25.4623504,15.8281146 C25.1590482,15.7135237 24.9040634,15.5509671 24.6973885,15.3404397 C24.4907135,15.1299123 24.3336966,14.8754179 24.226333,14.5769487 C24.1189694,14.2784795 24.0652884,13.9453716 24.0652884,13.5776149 L24.0652884,9.29247169 L23.3566921,9.29247169 C23.2278557,9.29247169 23.1178097,9.2511663 23.0265506,9.1685543 C22.9352915,9.08594229 22.8896627,8.96469101 22.8896627,8.8047968 L22.8896627,7.83744171 L24.2182807,7.58161226 L24.7094668,5.55896069 C24.773885,5.30312997 24.9564004,5.17521652 25.2570185,5.17521652 L26.5614799,5.17521652 L26.5614799,7.5976016 L28.590642,7.5976016 L28.590642,9.29247169 L26.5614799,9.29247169 L26.5614799,13.4097268 C26.5614799,13.6015999 26.6084507,13.7601593 26.7023939,13.8854097 C26.7963371,14.0106602 26.9318816,14.0732845 27.1090316,14.0732845 C27.2002906,14.0732845 27.2767861,14.0639575 27.3385201,14.0453031 C27.4002542,14.0266488 27.4539352,14.0053299 27.4995647,13.9813458 C27.5451943,13.9573616 27.5881391,13.9360427 27.6284004,13.9173884 C27.6686618,13.8987341 27.7156327,13.8894071 27.7693145,13.8894071 C27.844469,13.8894071 27.9048601,13.9067287 27.9504897,13.9413724 C27.9961192,13.9760162 28.0430901,14.0306459 28.0914037,14.1052632 L28.8483134,15.2804797 C28.5262225,15.520321 28.1638758,15.7001993 27.7612622,15.8201199 C27.3586487,15.9400406 26.9426209,16 26.5131665,16 Z M35.7893362,15.8720853 C35.5531363,15.8720853 35.374647,15.8401069 35.2538629,15.7761492 C35.1330788,15.7121916 35.032427,15.5789484 34.9519042,15.3764157 L34.7747552,14.9207195 C34.5653961,15.0966031 34.3640924,15.2511652 34.1708379,15.3844104 C33.9775834,15.5176556 33.7776216,15.6309123 33.5709467,15.7241839 C33.3642717,15.8174555 33.1441796,15.8867419 32.9106638,15.9320453 C32.6771479,15.9773487 32.4181371,16 32.1336235,16 C31.7524827,16 31.4062402,15.9507 31.0948857,15.8520986 C30.7835313,15.7534972 30.5191523,15.6082621 30.301741,15.4163891 C30.0843297,15.224516 29.9165766,14.9860108 29.7984766,14.7008661 C29.6803766,14.4157214 29.6213275,14.0866108 29.6213275,13.7135243 C29.6213275,13.4203849 29.6964809,13.1192554 29.84679,12.8101266 C29.997099,12.5009978 30.2574519,12.2198547 30.6278564,11.9666889 C30.9982608,11.7135231 31.4974941,11.5016664 32.1255713,11.3311126 C32.7536484,11.1605588 33.5454432,11.0646237 34.5009793,11.0433045 L34.5009793,10.691539 C34.5009793,10.2065266 34.4003274,9.85609702 34.1990207,9.64023984 C33.9977139,9.42438266 33.7118626,9.3164557 33.3414581,9.3164557 C33.0462082,9.3164557 32.8046437,9.34843406 32.6167573,9.41239174 C32.428871,9.47634942 32.2611179,9.54830073 32.1134929,9.62824783 C31.965868,9.70819494 31.8222713,9.78014625 31.6826986,9.84410393 C31.5431259,9.90806161 31.3767148,9.94003997 31.1834603,9.94003997 C31.0116785,9.94003997 30.8653978,9.89873459 30.7446137,9.81612258 C30.6238296,9.73351058 30.5285459,9.63091334 30.4587595,9.50832778 L30.0078346,8.73284477 C30.5124436,8.29047081 31.072068,7.96136017 31.6867247,7.745503 C32.3013814,7.52964582 32.9603157,7.42171885 33.6635473,7.42171885 C34.1681563,7.42171885 34.6231028,7.50299719 35.0284004,7.6655563 C35.4336981,7.8281154 35.7772565,8.05462879 36.059086,8.34510326 C36.3409154,8.63557773 36.5569815,8.98067755 36.7072905,9.38041306 C36.8575996,9.78014857 36.932753,10.2171862 36.932753,10.691539 L36.932753,15.8720853 L35.7893362,15.8720853 Z M32.9227421,14.3610926 C33.2448329,14.3610926 33.5266582,14.3051305 33.7682263,14.1932045 C34.0097945,14.0812786 34.254043,13.9000679 34.5009793,13.649567 L34.5009793,12.4983344 C34.0017385,12.5196537 33.5910789,12.5622915 33.268988,12.6262492 C32.9468972,12.6902068 32.6919124,12.7701528 32.5040261,12.8660893 C32.3161398,12.9620258 32.1859634,13.0712852 32.1134929,13.1938708 C32.0410225,13.3164563 32.0047878,13.4496995 32.0047878,13.5936043 C32.0047878,13.876084 32.0826253,14.0746163 32.2383025,14.1892072 C32.3939797,14.303798 32.622124,14.3610926 32.9227421,14.3610926 Z M41.6352557,16 C41.2380103,16 40.8877418,15.9427054 40.5844396,15.8281146 C40.2811374,15.7135237 40.0261526,15.5509671 39.8194777,15.3404397 C39.6128027,15.1299123 39.4557858,14.8754179 39.3484222,14.5769487 C39.2410586,14.2784795 39.1873776,13.9453716 39.1873776,13.5776149 L39.1873776,9.29247169 L38.4787813,9.29247169 C38.3499449,9.29247169 38.2398989,9.2511663 38.1486398,9.1685543 C38.0573808,9.08594229 38.0117519,8.96469101 38.0117519,8.8047968 L38.0117519,7.83744171 L39.34037,7.58161226 L39.831556,5.55896069 C39.8959742,5.30312997 40.0784896,5.17521652 40.3791077,5.17521652 L41.6835691,5.17521652 L41.6835691,7.5976016 L43.7127312,7.5976016 L43.7127312,9.29247169 L41.6835691,9.29247169 L41.6835691,13.4097268 C41.6835691,13.6015999 41.73054,13.7601593 41.8244831,13.8854097 C41.9184263,14.0106602 42.0539708,14.0732845 42.2311208,14.0732845 C42.3223799,14.0732845 42.3988753,14.0639575 42.4606094,14.0453031 C42.5223434,14.0266488 42.5760244,14.0053299 42.621654,13.9813458 C42.6672835,13.9573616 42.7102283,13.9360427 42.7504897,13.9173884 C42.790751,13.8987341 42.8377219,13.8894071 42.8914037,13.8894071 C42.9665582,13.8894071 43.0269494,13.9067287 43.0725789,13.9413724 C43.1182084,13.9760162 43.1651793,14.0306459 43.2134929,14.1052632 L43.9704026,15.2804797 C43.6483118,15.520321 43.285965,15.7001993 42.8833515,15.8201199 C42.4807379,15.9400406 42.0647102,16 41.6352557,16 Z M48.7212187,7.45369753 C49.2741413,7.45369753 49.7800848,7.53897316 50.2390642,7.70952698 C50.6980436,7.8800808 51.092599,8.1279131 51.4227421,8.45303131 C51.7528852,8.77814953 52.010554,9.17654661 52.1957563,9.64823451 C52.3809585,10.1199224 52.4735582,10.6542275 52.4735582,11.2511659 C52.4735582,11.4377091 52.4655061,11.5896063 52.4494015,11.7068621 C52.433297,11.8241178 52.4037724,11.9173881 52.360827,11.9866755 C52.3178815,12.055963 52.2601745,12.1039306 52.187704,12.1305796 C52.1152336,12.1572286 52.0226339,12.170553 51.9099021,12.170553 L47.0946681,12.170553 C47.1751908,12.8634278 47.3872308,13.3657546 47.7307943,13.6775483 C48.0743579,13.989342 48.5172262,14.1452365 49.0594124,14.1452365 C49.3492942,14.1452365 49.5989108,14.1105933 49.8082699,14.0413058 C50.0176289,13.9720183 50.2041704,13.8947373 50.3678999,13.8094604 C50.5316294,13.7241835 50.6819362,13.6469024 50.8188248,13.5776149 C50.9557134,13.5083274 51.0993101,13.4736842 51.2496192,13.4736842 C51.4482418,13.4736842 51.5985486,13.5456355 51.7005441,13.6895403 L52.4252448,14.5769487 C52.1675722,14.8700881 51.889773,15.1085934 51.591839,15.2924717 C51.2939049,15.47635 50.9879232,15.6202526 50.6738847,15.7241839 C50.3598461,15.8281151 50.0458122,15.9000664 49.7317737,15.94004 C49.4177351,15.9800135 49.1184635,16 48.8339499,16 C48.2488183,16 47.69993,15.9053973 47.1872688,15.7161892 C46.6746075,15.5269811 46.2263712,15.245838 45.8425462,14.8727515 C45.4587213,14.499665 45.1554237,14.0359788 44.9326442,13.4816789 C44.7098647,12.927379 44.5984766,12.282482 44.5984766,11.5469687 C44.5984766,10.9926688 44.6937604,10.4676907 44.8843308,9.97201865 C45.0749012,9.47634662 45.3486743,9.04197388 45.7056583,8.66888741 C46.0626423,8.29580093 46.4947744,8.00000109 47.0020675,7.78147901 C47.5093605,7.56295694 48.0824052,7.45369753 48.7212187,7.45369753 Z M48.7695321,9.16455696 C48.291764,9.16455696 47.9186811,9.29913256 47.650272,9.56828781 C47.381863,9.83744305 47.2047157,10.2251807 47.1188248,10.7315123 L50.2350381,10.7315123 C50.2350381,10.5343095 50.2095396,10.3424393 50.1585419,10.1558961 C50.1075442,9.96935283 50.0243386,9.80279887 49.9089227,9.65622918 C49.7935069,9.50965949 49.641858,9.39107307 49.4539717,9.30046636 C49.2660854,9.20985964 49.0379411,9.16455696 48.7695321,9.16455696 Z M59.9299238,9.54830113 C59.8547693,9.63890785 59.7822999,9.71085916 59.7125136,9.76415723 C59.6427273,9.8174553 59.5434174,9.84410393 59.4145811,9.84410393 C59.2911129,9.84410393 59.1797248,9.81479043 59.0804135,9.75616256 C58.9811022,9.69753468 58.8697141,9.63224553 58.7462459,9.56029314 C58.6227778,9.48834075 58.4778391,9.42305159 58.3114255,9.36442372 C58.1450119,9.30579584 57.93834,9.27648235 57.6914037,9.27648235 C57.3854174,9.27648235 57.1210385,9.33244448 56.898259,9.44437042 C56.6754795,9.55629636 56.4916221,9.71618817 56.3466812,9.92405063 C56.2017403,10.1319131 56.0943783,10.3864076 56.0245919,10.6875416 C55.9548056,10.9886757 55.9199129,11.3284458 55.9199129,11.7068621 C55.9199129,12.5010033 56.0742458,13.111257 56.3829162,13.5376416 C56.6915866,13.9640261 57.1170085,14.1772152 57.6591948,14.1772152 C57.9490765,14.1772152 58.1785628,14.1412395 58.3476605,14.0692871 C58.5167582,13.9973348 58.6603549,13.9173888 58.7784548,13.829447 C58.8965548,13.7415052 59.0052588,13.6602269 59.1045702,13.5856096 C59.2038815,13.5109923 59.3286899,13.4736842 59.4789989,13.4736842 C59.6776216,13.4736842 59.8279284,13.5456355 59.9299238,13.6895403 L60.6546246,14.5769487 C60.3969519,14.8700881 60.1258629,15.1085934 59.8413493,15.2924717 C59.5568357,15.47635 59.2656163,15.6202526 58.9676823,15.7241839 C58.6697482,15.8281151 58.3704767,15.9000664 58.0698585,15.94004 C57.7692404,15.9800135 57.476679,16 57.1921654,16 C56.6821882,16 56.1950332,15.9040649 55.7306855,15.7121919 C55.2663379,15.5203188 54.8583623,15.2418406 54.5067465,14.8767488 C54.1551306,14.5116571 53.8759894,14.0626276 53.6693145,13.5296469 C53.4626395,12.9966662 53.3593036,12.3890774 53.3593036,11.7068621 C53.3593036,11.1099237 53.4492193,10.5516348 53.6290533,10.0319787 C53.8088874,9.51232252 54.0746083,9.0619606 54.4262242,8.68087941 C54.77784,8.29979823 55.2126561,8.00000109 55.7306855,7.78147901 C56.248715,7.56295694 56.8486001,7.45369753 57.5303591,7.45369753 C58.1852771,7.45369753 58.7596638,7.55762721 59.2535365,7.76548967 C59.7474091,7.97335214 60.1929614,8.27714657 60.5902067,8.67688208 L59.9299238,9.54830113 Z M61.7336235,15.8720853 L61.7336235,7.58161226 L63.2152339,7.58161226 C63.3387021,7.58161226 63.442038,7.59227171 63.5252448,7.61359094 C63.6084516,7.63491017 63.6782369,7.66822096 63.7346028,7.71352432 C63.7909687,7.75882767 63.8339135,7.8187871 63.8634385,7.8934044 C63.8929635,7.96802169 63.918462,8.05862705 63.9399347,8.16522318 L64.0768226,8.9407062 C64.3828089,8.4716832 64.7263673,8.10126718 65.1075082,7.82944704 C65.488649,7.55762689 65.9046767,7.42171885 66.3556039,7.42171885 C66.7367447,7.42171885 67.0427264,7.51232421 67.2735582,7.69353764 L66.951469,9.51632245 C66.9299963,9.62824839 66.8870515,9.70686187 66.8226333,9.75216522 C66.7582151,9.79746858 66.6723255,9.82011992 66.5649619,9.82011992 C66.4737028,9.82011992 66.3663408,9.80812803 66.2428727,9.7841439 C66.1194045,9.76015977 65.9637296,9.74816789 65.7758433,9.74816789 C65.1209253,9.74816789 64.6055877,10.0946001 64.229815,10.787475 L64.229815,15.8720853 L61.7336235,15.8720853 Z M73.9891186,15.8720853 C73.7529187,15.8720853 73.5744293,15.8401069 73.4536453,15.7761492 C73.3328612,15.7121916 73.2322093,15.5789484 73.1516866,15.3764157 L72.9745375,14.9207195 C72.7651785,15.0966031 72.5638747,15.2511652 72.3706202,15.3844104 C72.1773657,15.5176556 71.977404,15.6309123 71.7707291,15.7241839 C71.5640541,15.8174555 71.343962,15.8867419 71.1104461,15.9320453 C70.8769303,15.9773487 70.6179194,16 70.3334059,16 C69.9522651,16 69.6060226,15.9507 69.2946681,15.8520986 C68.9833136,15.7534972 68.7189347,15.6082621 68.5015234,15.4163891 C68.2841121,15.224516 68.116359,14.9860108 67.998259,14.7008661 C67.880159,14.4157214 67.8211099,14.0866108 67.8211099,13.7135243 C67.8211099,13.4203849 67.8962633,13.1192554 68.0465724,12.8101266 C68.1968814,12.5009978 68.4572343,12.2198547 68.8276387,11.9666889 C69.1980432,11.7135231 69.6972765,11.5016664 70.3253536,11.3311126 C70.9534308,11.1605588 71.7452255,11.0646237 72.7007617,11.0433045 L72.7007617,10.691539 C72.7007617,10.2065266 72.6001098,9.85609702 72.398803,9.64023984 C72.1974963,9.42438266 71.9116449,9.3164557 71.5412405,9.3164557 C71.2459905,9.3164557 71.004426,9.34843406 70.8165397,9.41239174 C70.6286534,9.47634942 70.4609003,9.54830073 70.3132753,9.62824783 C70.1656503,9.70819494 70.0220537,9.78014625 69.882481,9.84410393 C69.7429083,9.90806161 69.5764972,9.94003997 69.3832427,9.94003997 C69.2114609,9.94003997 69.0651801,9.89873459 68.9443961,9.81612258 C68.823612,9.73351058 68.7283282,9.63091334 68.6585419,9.50832778 L68.207617,8.73284477 C68.712226,8.29047081 69.2718504,7.96136017 69.8865071,7.745503 C70.5011638,7.52964582 71.160098,7.42171885 71.8633297,7.42171885 C72.3679387,7.42171885 72.8228852,7.50299719 73.2281828,7.6655563 C73.6334804,7.8281154 73.9770389,8.05462879 74.2588683,8.34510326 C74.5406978,8.63557773 74.7567638,8.98067755 74.9070729,9.38041306 C75.057382,9.78014857 75.1325354,10.2171862 75.1325354,10.691539 L75.1325354,15.8720853 L73.9891186,15.8720853 Z M71.1225245,14.3610926 C71.4446153,14.3610926 71.7264406,14.3051305 71.9680087,14.1932045 C72.2095768,14.0812786 72.4538254,13.9000679 72.7007617,13.649567 L72.7007617,12.4983344 C72.2015209,12.5196537 71.7908612,12.5622915 71.4687704,12.6262492 C71.1466796,12.6902068 70.8916948,12.7701528 70.7038085,12.8660893 C70.5159222,12.9620258 70.3857457,13.0712852 70.3132753,13.1938708 C70.2408049,13.3164563 70.2045702,13.4496995 70.2045702,13.5936043 C70.2045702,13.876084 70.2824076,14.0746163 70.4380849,14.1892072 C70.5937621,14.303798 70.8219064,14.3610926 71.1225245,14.3610926 Z M77.2744287,15.8720853 L77.2744287,9.28447702 L76.726877,9.17255163 C76.5389907,9.12991318 76.3873419,9.06329159 76.271926,8.97268488 C76.1565101,8.88207816 76.098803,8.74883499 76.098803,8.57295137 L76.098803,7.5976016 L77.2744287,7.5976016 L77.2744287,7.12591606 C77.2744287,6.65156325 77.3509242,6.22252024 77.5039173,5.83877415 C77.6569104,5.45502806 77.8770026,5.12724986 78.1642002,4.85542971 C78.4513979,4.58360957 78.8016664,4.37308536 79.2150163,4.22385077 C79.6283662,4.07461618 80.098075,4 80.6241567,4 C80.8281476,4 81.0173731,4.01199189 81.191839,4.03597602 C81.3663048,4.05996015 81.5474782,4.09860067 81.7353645,4.15189873 L81.6870511,5.35909394 C81.681683,5.44437085 81.6588685,5.51498973 81.6186072,5.5709527 C81.5783458,5.62691567 81.5286909,5.67221835 81.4696409,5.70686209 C81.4105909,5.74150584 81.3448317,5.76682204 81.2723613,5.78281146 C81.1998908,5.79880088 81.1287635,5.80679547 81.0589771,5.80679547 C80.8388817,5.80679547 80.6429461,5.82811438 80.4711643,5.87075283 C80.2993825,5.91339129 80.1557859,5.98933989 80.04037,6.09860093 C79.9249541,6.20786197 79.8377225,6.3517646 79.7786725,6.53031312 C79.7196225,6.70886165 79.6900979,6.93404261 79.6900979,7.20586276 L79.6900979,7.5976016 L81.6548422,7.5976016 L81.6548422,9.29247169 L79.7706202,9.29247169 L79.7706202,15.8720853 L77.2744287,15.8720853 Z M85.6648531,16 C85.2676077,16 84.9173392,15.9427054 84.614037,15.8281146 C84.3107348,15.7135237 84.05575,15.5509671 83.8490751,15.3404397 C83.6424001,15.1299123 83.4853832,14.8754179 83.3780196,14.5769487 C83.270656,14.2784795 83.216975,13.9453716 83.216975,13.5776149 L83.216975,9.29247169 L82.5083787,9.29247169 C82.3795423,9.29247169 82.2694963,9.2511663 82.1782372,9.1685543 C82.0869781,9.08594229 82.0413493,8.96469101 82.0413493,8.8047968 L82.0413493,7.83744171 L83.3699674,7.58161226 L83.8611534,5.55896069 C83.9255716,5.30312997 84.108087,5.17521652 84.4087051,5.17521652 L85.7131665,5.17521652 L85.7131665,7.5976016 L87.7423286,7.5976016 L87.7423286,9.29247169 L85.7131665,9.29247169 L85.7131665,13.4097268 C85.7131665,13.6015999 85.7601374,13.7601593 85.8540805,13.8854097 C85.9480237,14.0106602 86.0835682,14.0732845 86.2607182,14.0732845 C86.3519772,14.0732845 86.4284727,14.0639575 86.4902067,14.0453031 C86.5519408,14.0266488 86.6056218,14.0053299 86.6512514,13.9813458 C86.6968809,13.9573616 86.7398257,13.9360427 86.7800871,13.9173884 C86.8203484,13.8987341 86.8673193,13.8894071 86.9210011,13.8894071 C86.9961556,13.8894071 87.0565467,13.9067287 87.1021763,13.9413724 C87.1478058,13.9760162 87.1947767,14.0306459 87.2430903,14.1052632 L88,15.2804797 C87.6779092,15.520321 87.3155624,15.7001993 86.9129489,15.8201199 C86.5103353,15.9400406 86.0943076,16 85.6648531,16 Z" id="Text"></path>
                                <polygon id="Arrow" points="4.40006241 6.39302334 0 5.37284079 11 0 5.57718712 11"></polygon>
                            </g>
                        </g>
                    </g>
                </g>
            </g>
        </g>
    </g>
</svg>