<?xml version="1.0" encoding="UTF-8"?>
<svg width="88px" height="17px" viewBox="0 0 88 17" version="1.1" xmlns="http://www.w3.org/2000/svg" xmlns:xlink="http://www.w3.org/1999/xlink">
    <!-- Generator: Sketch 48.2 (47327) - http://www.bohemiancoding.com/sketch -->
    <title>Logo</title>
    <desc>Created with Sketch.</desc>
    <defs></defs>
    <g id="Front-Page-—-Desktop" stroke="none" stroke-width="1" fill="none" fill-rule="evenodd" transform="translate(-188.000000, -32.000000)">
        <g id="Header-Navigation" transform="translate(188.000000, 32.000000)">
            <g id="Logo">
                <path d="M21.456,6.712 C21.3759996,6.84000064 21.2920004,6.93599968 21.204,7 C21.1159996,7.06400032 21.0026674,7.096 20.864,7.096 C20.7413327,7.096 20.609334,7.05733372 20.468,6.98 C20.326666,6.90266628 20.1666676,6.81600048 19.988,6.72 C19.8093324,6.62399952 19.6053345,6.53733372 19.376,6.46 C19.1466655,6.38266628 18.8853348,6.344 18.592,6.344 C18.0853308,6.344 17.7080012,6.45199892 17.46,6.668 C17.2119988,6.88400108 17.088,7.17599816 17.088,7.544 C17.088,7.77866784 17.1626659,7.97333256 17.312,8.128 C17.4613341,8.28266744 17.6573321,8.41599944 17.9,8.528 C18.1426679,8.64000056 18.4199984,8.7426662 18.732,8.836 C19.0440016,8.9293338 19.362665,9.03333276 19.688,9.148 C20.013335,9.26266724 20.3319984,9.39733256 20.644,9.552 C20.9560016,9.70666744 21.2333321,9.9039988 21.476,10.144 C21.7186679,10.3840012 21.9146659,10.6759983 22.064,11.02 C22.2133341,11.3640017 22.288,11.7786642 22.288,12.264 C22.288,12.8026694 22.1946676,13.3066643 22.008,13.776 C21.8213324,14.2453357 21.5506684,14.6546649 21.196,15.004 C20.8413316,15.3533351 20.4040026,15.627999 19.884,15.828 C19.3639974,16.028001 18.7733366,16.128 18.112,16.128 C17.7493315,16.128 17.3800019,16.090667 17.004,16.016 C16.6279981,15.941333 16.2640018,15.8360007 15.912,15.7 C15.5599982,15.5639993 15.2293349,15.4026676 14.92,15.216 C14.6106651,15.0293324 14.3413345,14.8213345 14.112,14.592 L14.912,13.328 C14.970667,13.2319995 15.0533328,13.154667 15.16,13.096 C15.2666672,13.037333 15.3813327,13.008 15.504,13.008 C15.6640008,13.008 15.8253325,13.0586662 15.988,13.16 C16.1506675,13.2613338 16.3346656,13.3733327 16.54,13.496 C16.7453344,13.6186673 16.981332,13.7306662 17.248,13.832 C17.514668,13.9333338 17.8293315,13.984 18.192,13.984 C18.6826691,13.984 19.0639986,13.8760011 19.336,13.66 C19.6080014,13.4439989 19.744,13.1013357 19.744,12.632 C19.744,12.3599986 19.6693341,12.1386675 19.52,11.968 C19.3706659,11.7973325 19.1746679,11.6560006 18.932,11.544 C18.6893321,11.4319994 18.4133349,11.3333338 18.104,11.248 C17.7946651,11.1626662 17.477335,11.0680005 17.152,10.964 C16.826665,10.8599995 16.5093349,10.7320008 16.2,10.58 C15.8906651,10.4279992 15.6146679,10.2280012 15.372,9.98 C15.1293321,9.73199876 14.9333341,9.42266852 14.784,9.052 C14.6346659,8.68133148 14.56,8.22400272 14.56,7.68 C14.56,7.24266448 14.6479991,6.81600208 14.824,6.4 C15.0000009,5.98399792 15.258665,5.61333496 15.6,5.288 C15.941335,4.96266504 16.3599975,4.70266764 16.856,4.508 C17.3520025,4.31333236 17.9199968,4.216 18.56,4.216 C18.9173351,4.216 19.2653316,4.24399972 19.604,4.3 C19.9426684,4.35600028 20.2639985,4.43866612 20.568,4.548 C20.8720015,4.65733388 21.1559987,4.78799924 21.42,4.94 C21.6840013,5.09200076 21.919999,5.26399904 22.128,5.456 L21.456,6.712 Z M26.544,16.128 C26.1493314,16.128 25.8013348,16.0706672 25.5,15.956 C25.1986652,15.8413328 24.9453344,15.6786677 24.74,15.468 C24.5346656,15.2573323 24.3786672,15.0026682 24.272,14.704 C24.1653328,14.4053318 24.112,14.0720018 24.112,13.704 L24.112,9.416 L23.408,9.416 C23.2799994,9.416 23.1706671,9.37466708 23.08,9.292 C22.9893329,9.20933292 22.944,9.0880008 22.944,8.928 L22.944,7.96 L24.264,7.704 L24.752,5.68 C24.8160003,5.42399872 24.9973318,5.296 25.296,5.296 L26.592,5.296 L26.592,7.72 L28.608,7.72 L28.608,9.416 L26.592,9.416 L26.592,13.536 C26.592,13.728001 26.6386662,13.886666 26.732,14.012 C26.8253338,14.137334 26.9599991,14.2 27.136,14.2 C27.2266671,14.2 27.3026664,14.1906668 27.364,14.172 C27.4253336,14.1533332 27.4786664,14.1320001 27.524,14.108 C27.5693336,14.0839999 27.6119998,14.0626668 27.652,14.044 C27.6920002,14.0253332 27.7386664,14.016 27.792,14.016 C27.866667,14.016 27.9266664,14.0333332 27.972,14.068 C28.0173336,14.1026668 28.0639998,14.157333 28.112,14.232 L28.864,15.408 C28.5439984,15.6480012 28.184002,15.8279994 27.784,15.948 C27.383998,16.0680006 26.9706688,16.128 26.544,16.128 Z M35.76,16 C35.5253322,16 35.3480006,15.9680003 35.228,15.904 C35.1079994,15.8399997 35.0080004,15.7066677 34.928,15.504 L34.752,15.048 C34.543999,15.2240009 34.344001,15.378666 34.152,15.512 C33.959999,15.645334 33.7613344,15.7586662 33.556,15.852 C33.3506656,15.9453338 33.1320012,16.0146664 32.9,16.06 C32.6679988,16.1053336 32.4106681,16.128 32.128,16.128 C31.7493314,16.128 31.4053349,16.0786672 31.096,15.98 C30.7866651,15.8813328 30.5240011,15.736001 30.308,15.544 C30.0919989,15.351999 29.9253339,15.1133348 29.808,14.828 C29.6906661,14.5426652 29.632,14.2133352 29.632,13.84 C29.632,13.5466652 29.7066659,13.2453349 29.856,12.936 C30.0053341,12.6266651 30.2639982,12.3453346 30.632,12.092 C31.0000018,11.8386654 31.4959969,11.6266675 32.12,11.456 C32.7440031,11.2853325 33.5306619,11.1893334 34.48,11.168 L34.48,10.816 C34.48,10.3306642 34.380001,9.98000108 34.18,9.764 C33.979999,9.54799892 33.6960018,9.44 33.328,9.44 C33.0346652,9.44 32.7946676,9.47199968 32.608,9.536 C32.4213324,9.60000032 32.2546674,9.6719996 32.108,9.752 C31.9613326,9.8320004 31.8186674,9.90399968 31.68,9.968 C31.5413326,10.0320003 31.376001,10.064 31.184,10.064 C31.0133325,10.064 30.8680006,10.0226671 30.748,9.94 C30.6279994,9.85733292 30.5333337,9.75466728 30.464,9.632 L30.016,8.856 C30.5173358,8.41333112 31.0733303,8.08400108 31.684,7.868 C32.2946697,7.65199892 32.9493298,7.544 33.648,7.544 C34.1493358,7.544 34.6013313,7.62533252 35.004,7.788 C35.4066687,7.95066748 35.7479986,8.17733188 36.028,8.468 C36.3080014,8.75866812 36.5226659,9.103998 36.672,9.504 C36.8213341,9.904002 36.896,10.341331 36.896,10.816 L36.896,16 L35.76,16 Z M32.912,14.488 C33.2320016,14.488 33.5119988,14.4320006 33.752,14.32 C33.9920012,14.2079994 34.2346654,14.0266679 34.48,13.776 L34.48,12.624 C33.9839975,12.6453334 33.5760016,12.6879997 33.256,12.752 C32.9359984,12.8160003 32.6826676,12.8959995 32.496,12.992 C32.3093324,13.0880005 32.1800004,13.1973327 32.108,13.32 C32.0359996,13.4426673 32,13.5759993 32,13.72 C32,14.0026681 32.0773326,14.2013328 32.232,14.316 C32.3866674,14.4306672 32.6133318,14.488 32.912,14.488 Z M41.568,16.128 C41.1733314,16.128 40.8253348,16.0706672 40.524,15.956 C40.2226652,15.8413328 39.9693344,15.6786677 39.764,15.468 C39.5586656,15.2573323 39.4026672,15.0026682 39.296,14.704 C39.1893328,14.4053318 39.136,14.0720018 39.136,13.704 L39.136,9.416 L38.432,9.416 C38.3039994,9.416 38.1946671,9.37466708 38.104,9.292 C38.0133329,9.20933292 37.968,9.0880008 37.968,8.928 L37.968,7.96 L39.288,7.704 L39.776,5.68 C39.8400003,5.42399872 40.0213318,5.296 40.32,5.296 L41.616,5.296 L41.616,7.72 L43.632,7.72 L43.632,9.416 L41.616,9.416 L41.616,13.536 C41.616,13.728001 41.6626662,13.886666 41.756,14.012 C41.8493338,14.137334 41.9839991,14.2 42.16,14.2 C42.2506671,14.2 42.3266664,14.1906668 42.388,14.172 C42.4493336,14.1533332 42.5026664,14.1320001 42.548,14.108 C42.5933336,14.0839999 42.6359998,14.0626668 42.676,14.044 C42.7160002,14.0253332 42.7626664,14.016 42.816,14.016 C42.890667,14.016 42.9506664,14.0333332 42.996,14.068 C43.0413336,14.1026668 43.0879998,14.157333 43.136,14.232 L43.888,15.408 C43.5679984,15.6480012 43.208002,15.8279994 42.808,15.948 C42.407998,16.0680006 41.9946688,16.128 41.568,16.128 Z M48.608,7.576 C49.1573361,7.576 49.6599977,7.66133248 50.116,7.832 C50.5720023,8.00266752 50.9639984,8.25066504 51.292,8.576 C51.6200016,8.90133496 51.8759991,9.29999764 52.06,9.772 C52.2440009,10.2440024 52.336,10.7786637 52.336,11.376 C52.336,11.5626676 52.3280001,11.7146661 52.312,11.832 C52.2959999,11.9493339 52.2666669,12.0426663 52.224,12.112 C52.1813331,12.1813337 52.1240004,12.2293332 52.052,12.256 C51.9799996,12.2826668 51.8880006,12.296 51.776,12.296 L46.992,12.296 C47.0720004,12.9893368 47.282665,13.4919984 47.624,13.804 C47.965335,14.1160016 48.4053306,14.272 48.944,14.272 C49.2320014,14.272 49.479999,14.2373337 49.688,14.168 C49.896001,14.0986663 50.0813325,14.0213338 50.244,13.936 C50.4066675,13.8506662 50.5559993,13.7733337 50.692,13.704 C50.8280007,13.6346663 50.9706659,13.6 51.12,13.6 C51.3173343,13.6 51.4666662,13.6719993 51.568,13.816 L52.288,14.704 C52.0319987,14.9973348 51.7560015,15.2359991 51.46,15.42 C51.1639985,15.6040009 50.8600016,15.7479995 50.548,15.852 C50.2359984,15.9560005 49.9240016,16.0279998 49.612,16.068 C49.2999984,16.1080002 49.0026681,16.128 48.72,16.128 C48.1386638,16.128 47.5933359,16.0333343 47.084,15.844 C46.5746641,15.6546657 46.1293352,15.3733352 45.748,15 C45.3666648,14.6266648 45.0653344,14.1626694 44.844,13.608 C44.6226656,13.0533306 44.512,12.4080037 44.512,11.672 C44.512,11.1173306 44.6066657,10.5920025 44.796,10.096 C44.9853343,9.59999752 45.2573316,9.1653352 45.612,8.792 C45.9666684,8.4186648 46.3959975,8.12266776 46.9,7.904 C47.4040025,7.68533224 47.9733302,7.576 48.608,7.576 Z M48.656,9.288 C48.181331,9.288 47.810668,9.42266532 47.544,9.692 C47.277332,9.96133468 47.1013338,10.3493308 47.016,10.856 L50.112,10.856 C50.112,10.6586657 50.0866669,10.4666676 50.036,10.28 C49.9853331,10.0933324 49.9026672,9.9266674 49.788,9.78 C49.6733328,9.6333326 49.5226676,9.51466712 49.336,9.424 C49.1493324,9.33333288 48.922668,9.288 48.656,9.288 Z M59.744,9.672 C59.669333,9.76266712 59.5973337,9.8346664 59.528,9.888 C59.4586663,9.9413336 59.3600006,9.968 59.232,9.968 C59.1093327,9.968 58.9986672,9.93866696 58.9,9.88 C58.8013328,9.82133304 58.6906673,9.75600036 58.568,9.684 C58.4453327,9.61199964 58.3013342,9.54666696 58.136,9.488 C57.9706658,9.42933304 57.7653346,9.4 57.52,9.4 C57.2159985,9.4 56.9533344,9.45599944 56.732,9.568 C56.5106656,9.68000056 56.3280007,9.83999896 56.184,10.048 C56.0399993,10.256001 55.9333337,10.5106652 55.864,10.812 C55.7946663,11.1133348 55.76,11.4533314 55.76,11.832 C55.76,12.6266706 55.9133318,13.2373312 56.22,13.664 C56.5266682,14.0906688 56.9493306,14.304 57.488,14.304 C57.7760014,14.304 58.0039992,14.2680004 58.172,14.196 C58.3400008,14.1239996 58.4826661,14.0440004 58.6,13.956 C58.7173339,13.8679996 58.8253328,13.786667 58.924,13.712 C59.0226672,13.637333 59.1466659,13.6 59.296,13.6 C59.4933343,13.6 59.6426662,13.6719993 59.744,13.816 L60.464,14.704 C60.2079987,14.9973348 59.9386681,15.2359991 59.656,15.42 C59.3733319,15.6040009 59.0840015,15.7479995 58.788,15.852 C58.4919985,15.9560005 58.1946682,16.0279998 57.896,16.068 C57.5973318,16.1080002 57.3066681,16.128 57.024,16.128 C56.5173308,16.128 56.0333356,16.032001 55.572,15.84 C55.1106644,15.647999 54.7053351,15.3693352 54.356,15.004 C54.0066649,14.6386648 53.7293344,14.189336 53.524,13.656 C53.3186656,13.122664 53.216,12.5146701 53.216,11.832 C53.216,11.2346637 53.3053324,10.6760026 53.484,10.156 C53.6626676,9.6359974 53.9266649,9.18533524 54.276,8.804 C54.6253351,8.42266476 55.0573308,8.12266776 55.572,7.904 C56.0866692,7.68533224 56.6826633,7.576 57.36,7.576 C58.0106699,7.576 58.5813309,7.67999896 59.072,7.888 C59.5626691,8.09600104 60.0053314,8.399998 60.4,8.8 L59.744,9.672 Z M61.536,16 L61.536,7.704 L63.008,7.704 C63.1306673,7.704 63.2333329,7.71466656 63.316,7.736 C63.3986671,7.75733344 63.4679997,7.79066644 63.524,7.836 C63.5800003,7.88133356 63.6226665,7.94133296 63.652,8.016 C63.6813335,8.09066704 63.7066666,8.1813328 63.728,8.288 L63.864,9.064 C64.1680015,8.59466432 64.5093314,8.22400136 64.888,7.952 C65.2666686,7.67999864 65.6799978,7.544 66.128,7.544 C66.5066686,7.544 66.8106655,7.63466576 67.04,7.816 L66.72,9.64 C66.6986666,9.75200056 66.6560003,9.83066644 66.592,9.876 C66.5279997,9.92133356 66.4426672,9.944 66.336,9.944 C66.2453329,9.944 66.1386673,9.93200012 66.016,9.908 C65.8933327,9.88399988 65.7386676,9.872 65.552,9.872 C64.9013301,9.872 64.3893352,10.2186632 64.016,10.912 L64.016,16 L61.536,16 Z M73.712,16 C73.4773322,16 73.3000006,15.9680003 73.18,15.904 C73.0599994,15.8399997 72.9600004,15.7066677 72.88,15.504 L72.704,15.048 C72.495999,15.2240009 72.296001,15.378666 72.104,15.512 C71.911999,15.645334 71.7133344,15.7586662 71.508,15.852 C71.3026656,15.9453338 71.0840012,16.0146664 70.852,16.06 C70.6199988,16.1053336 70.3626681,16.128 70.08,16.128 C69.7013314,16.128 69.3573349,16.0786672 69.048,15.98 C68.7386651,15.8813328 68.4760011,15.736001 68.26,15.544 C68.0439989,15.351999 67.8773339,15.1133348 67.76,14.828 C67.6426661,14.5426652 67.584,14.2133352 67.584,13.84 C67.584,13.5466652 67.6586659,13.2453349 67.808,12.936 C67.9573341,12.6266651 68.2159982,12.3453346 68.584,12.092 C68.9520018,11.8386654 69.4479969,11.6266675 70.072,11.456 C70.6960031,11.2853325 71.4826619,11.1893334 72.432,11.168 L72.432,10.816 C72.432,10.3306642 72.332001,9.98000108 72.132,9.764 C71.931999,9.54799892 71.6480018,9.44 71.28,9.44 C70.9866652,9.44 70.7466676,9.47199968 70.56,9.536 C70.3733324,9.60000032 70.2066674,9.6719996 70.06,9.752 C69.9133326,9.8320004 69.7706674,9.90399968 69.632,9.968 C69.4933326,10.0320003 69.328001,10.064 69.136,10.064 C68.9653325,10.064 68.8200006,10.0226671 68.7,9.94 C68.5799994,9.85733292 68.4853337,9.75466728 68.416,9.632 L67.968,8.856 C68.4693358,8.41333112 69.0253303,8.08400108 69.636,7.868 C70.2466697,7.65199892 70.9013298,7.544 71.6,7.544 C72.1013358,7.544 72.5533313,7.62533252 72.956,7.788 C73.3586687,7.95066748 73.6999986,8.17733188 73.98,8.468 C74.2600014,8.75866812 74.4746659,9.103998 74.624,9.504 C74.7733341,9.904002 74.848,10.341331 74.848,10.816 L74.848,16 L73.712,16 Z M70.864,14.488 C71.1840016,14.488 71.4639988,14.4320006 71.704,14.32 C71.9440012,14.2079994 72.1866654,14.0266679 72.432,13.776 L72.432,12.624 C71.9359975,12.6453334 71.5280016,12.6879997 71.208,12.752 C70.8879984,12.8160003 70.6346676,12.8959995 70.448,12.992 C70.2613324,13.0880005 70.1320004,13.1973327 70.06,13.32 C69.9879996,13.4426673 69.952,13.5759993 69.952,13.72 C69.952,14.0026681 70.0293326,14.2013328 70.184,14.316 C70.3386674,14.4306672 70.5653318,14.488 70.864,14.488 Z M76.976,16 L76.976,9.408 L76.432,9.296 C76.2453324,9.25333312 76.0946672,9.18666712 75.98,9.096 C75.8653328,9.00533288 75.808,8.87200088 75.808,8.696 L75.808,7.72 L76.976,7.72 L76.976,7.248 C76.976,6.77333096 77.0519992,6.34400192 77.204,5.96 C77.3560008,5.57599808 77.5746652,5.24800136 77.86,4.976 C78.1453348,4.70399864 78.4933313,4.49333408 78.904,4.344 C79.3146687,4.19466592 79.7813307,4.12 80.304,4.12 C80.5066677,4.12 80.6946658,4.13199988 80.868,4.156 C81.0413342,4.18000012 81.2213324,4.2186664 81.408,4.272 L81.36,5.48 C81.3546666,5.56533376 81.3320002,5.63599972 81.292,5.692 C81.2519998,5.74800028 81.202667,5.79333316 81.144,5.828 C81.085333,5.86266684 81.0200004,5.88799992 80.948,5.904 C80.8759996,5.92000008 80.8053337,5.928 80.736,5.928 C80.5173322,5.928 80.3226675,5.94933312 80.152,5.992 C79.9813325,6.03466688 79.8386672,6.11066612 79.724,6.22 C79.6093328,6.32933388 79.522667,6.47333244 79.464,6.652 C79.405333,6.83066756 79.376,7.05599864 79.376,7.328 L79.376,7.72 L81.328,7.72 L81.328,9.416 L79.456,9.416 L79.456,16 L76.976,16 Z M85.312,16.128 C84.9173314,16.128 84.5693348,16.0706672 84.268,15.956 C83.9666652,15.8413328 83.7133344,15.6786677 83.508,15.468 C83.3026656,15.2573323 83.1466672,15.0026682 83.04,14.704 C82.9333328,14.4053318 82.88,14.0720018 82.88,13.704 L82.88,9.416 L82.176,9.416 C82.0479994,9.416 81.9386671,9.37466708 81.848,9.292 C81.7573329,9.20933292 81.712,9.0880008 81.712,8.928 L81.712,7.96 L83.032,7.704 L83.52,5.68 C83.5840003,5.42399872 83.7653318,5.296 84.064,5.296 L85.36,5.296 L85.36,7.72 L87.376,7.72 L87.376,9.416 L85.36,9.416 L85.36,13.536 C85.36,13.728001 85.4066662,13.886666 85.5,14.012 C85.5933338,14.137334 85.7279991,14.2 85.904,14.2 C85.9946671,14.2 86.0706664,14.1906668 86.132,14.172 C86.1933336,14.1533332 86.2466664,14.1320001 86.292,14.108 C86.3373336,14.0839999 86.3799998,14.0626668 86.42,14.044 C86.4600002,14.0253332 86.5066664,14.016 86.56,14.016 C86.634667,14.016 86.6946664,14.0333332 86.74,14.068 C86.7853336,14.1026668 86.8319998,14.157333 86.88,14.232 L87.632,15.408 C87.3119984,15.6480012 86.952002,15.8279994 86.552,15.948 C86.151998,16.0680006 85.7386688,16.128 85.312,16.128 Z" id="Text" fill="#22262E"></path>
                <polygon id="Arrow" fill="#6B50FF" points="4.40006241 6.39302334 0 5.37284079 11 0 5.57718712 11"></polygon>
            </g>
        </g>
    </g>
</svg>